<?xml version="1.0" encoding="UTF-8" standalone="no"?>
<!-- Svg Vector Icons : http://www.onlinewebfonts.com/icon -->

<svg
   version="1.1"
   x="0px"
   y="0px"
   viewBox="0 0 235.83791 235.97182"
   enable-background="new 0 0 256 256"
   xml:space="preserve"
   id="svg5"
   sodipodi:docname="email.svg"
   width="235.83791"
   height="235.97182"
   inkscape:version="1.3 (1:1.3+202307231459+0e150ed6c4)"
   xmlns:inkscape="http://www.inkscape.org/namespaces/inkscape"
   xmlns:sodipodi="http://sodipodi.sourceforge.net/DTD/sodipodi-0.dtd"
   xmlns="http://www.w3.org/2000/svg"
   xmlns:svg="http://www.w3.org/2000/svg"><defs
   id="defs5" /><sodipodi:namedview
   id="namedview5"
   pagecolor="#ffffff"
   bordercolor="#000000"
   borderopacity="0.25"
   inkscape:showpageshadow="2"
   inkscape:pageopacity="0.0"
   inkscape:pagecheckerboard="0"
   inkscape:deskcolor="#d1d1d1"
   inkscape:zoom="4.59375"
   inkscape:cx="117.87755"
   inkscape:cy="117.98639"
   inkscape:window-width="2510"
   inkscape:window-height="1376"
   inkscape:window-x="1970"
   inkscape:window-y="27"
   inkscape:window-maximized="1"
   inkscape:current-layer="g5" />&#10;<metadata
   id="metadata1"> Svg Vector Icons : http://www.onlinewebfonts.com/icon </metadata>&#10;<g
   id="g5"
   transform="translate(-10.016734,-9.9531821)"><g
     id="g4"
     style="fill:#c7cbd1;fill-opacity:1"><g
       id="g3"
       style="fill:#c7cbd1;fill-opacity:1"><path
         fill="#000000"
         d="m 120,10.2 c -12,1.1 -19.9,2.7 -29.5,5.9 -43.5,14.6 -73.7,51.5 -79.9,98 -0.9,6.5 -0.7,22.7 0.2,29.4 5.3,37.1 26.1,68 58,86.7 12.9,7.6 27.6,12.6 43.5,14.9 7.6,1.1 23.4,1.1 31.1,0 16.8,-2.4 33.7,-8.5 46.8,-16.7 10.3,-6.5 22.2,-16.9 29.4,-25.9 7.5,-9.2 15.2,-22.9 19.2,-33.8 5.4,-14.7 7.9,-32.6 6.8,-48.1 -1.2,-16.9 -4.7,-29.9 -12,-44.7 C 224.5,57.3 210.9,41.8 193.6,30.1 176.8,18.8 158,12.2 137.7,10.4 132.7,9.9 123.8,9.8 120,10.2 Z m 87.2,117.9 v 54.7 H 127.9 48.6 V 128.1 73.4 h 79.3 79.3 z"
         id="path1"
         style="fill:#c7cbd1;fill-opacity:1" /><path
         fill="#000000"
         d="m 75.4,88.8 c 11.3,9.9 51.3,43.5 51.7,43.3 0.5,-0.2 49.7,-42.2 51.8,-44.2 0.6,-0.6 -6.8,-0.6 -52.3,-0.6 H 73.7 Z"
         id="path2"
         style="fill:#c7cbd1;fill-opacity:1" /><path
         fill="#000000"
         d="m 160,121.6 c -18.1,15.6 -33.1,28.3 -33.3,28.3 -0.1,0 -1.3,-0.9 -2.4,-2 -2.5,-2.4 -60.3,-51.5 -61.1,-52 -0.5,-0.3 -0.6,7.1 -0.6,36.3 v 36.7 h 65.4 65.4 v -37.8 c 0,-20.8 0,-37.8 -0.1,-37.8 -0.2,0 -15.1,12.8 -33.3,28.3 z"
         id="path3"
         style="fill:#c7cbd1;fill-opacity:1" /></g></g></g>&#10;</svg>
