<?xml version="1.0" encoding="UTF-8" standalone="no"?>
<svg
   width="24"
   height="23.999962"
   viewBox="0 0 24 23.999962"
   fill="none"
   version="1.1"
   id="svg1"
   sodipodi:docname="Github.svg"
   inkscape:version="1.3 (1:1.3+202307231459+0e150ed6c4)"
   xmlns:inkscape="http://www.inkscape.org/namespaces/inkscape"
   xmlns:sodipodi="http://sodipodi.sourceforge.net/DTD/sodipodi-0.dtd"
   xmlns="http://www.w3.org/2000/svg"
   xmlns:svg="http://www.w3.org/2000/svg">
  <defs
     id="defs1" />
  <sodipodi:namedview
     id="namedview1"
     pagecolor="#ffffff"
     bordercolor="#000000"
     borderopacity="0.25"
     inkscape:showpageshadow="2"
     inkscape:pageopacity="0.0"
     inkscape:pagecheckerboard="0"
     inkscape:deskcolor="#d1d1d1"
     inkscape:zoom="47.04"
     inkscape:cx="12.000425"
     inkscape:cy="11.989796"
     inkscape:window-width="2510"
     inkscape:window-height="1376"
     inkscape:window-x="1970"
     inkscape:window-y="27"
     inkscape:window-maximized="1"
     inkscape:current-layer="svg1" />
  <path
     fill-rule="evenodd"
     clip-rule="evenodd"
     d="M 11.9989,0 C 5.37328,0 0,5.5085 0,12.3041 c 0,5.436 3.43804,10.0471 8.20651,11.6741 0.60039,0.1133 0.81918,-0.2666 0.81918,-0.5929 0,-0.2916 -0.01031,-1.0658 -0.01621,-2.0922 C 5.67163,22.0363 4.96737,19.6434 4.96737,19.6434 4.4215,18.2219 3.63473,17.8435 3.63473,17.8435 2.5452,17.0807 3.71724,17.0958 3.71724,17.0958 c 1.20446,0.0868 1.83799,1.2681 1.83799,1.2681 1.07039,1.88 2.80893,1.337 3.49256,1.022 0.10903,-0.7946 0.41917,-1.3369 0.76172,-1.6443 -2.66454,-0.3105 -5.4661,-1.3664 -5.4661,-6.0811 0,-1.3429 0.46779,-2.44189 1.2354,-3.30144 C 5.45505,8.04787 5.04325,6.79631 5.69668,5.1029 c 0,0 1.00702,-0.33083 3.29955,1.26138 0.95693,-0.27343 1.98387,-0.40938 3.00417,-0.41467 1.0195,0.00529 2.0457,0.14124 3.0041,0.41467 2.2911,-1.59221 3.2966,-1.26138 3.2966,-1.26138 0.6549,1.69341 0.2431,2.94497 0.1201,3.25616 0.7691,0.85955 1.2332,1.95854 1.2332,3.30144 0,4.7268 -2.806,5.7669 -5.4786,6.0713 0.4302,0.3799 0.814,1.1307 0.814,2.2787 0,1.6444 -0.0148,2.9714 -0.0148,3.3748 0,0.3293 0.2166,0.7122 0.8251,0.5921 C 20.5649,22.3467 24,17.7385 24,12.3041 24,5.5085 18.6267,0 11.9989,0 Z"
     fill="#c7cbd1"
     id="path1" />
</svg>
